<svg width="160" height="160" viewBox="0 0 160 160" fill="none" xmlns="http://www.w3.org/2000/svg" role="img" aria-labelledby="title desc">
  <title id="title">Fox Tree Coffee logo</title>
  <desc id="desc">A simple fox and tree mark for Fox Tree Coffee.</desc>
  <rect x="8" y="8" width="144" height="144" rx="72" fill="#FFF9EF" stroke="#171512" stroke-width="8"/>
  <path d="M78 36C70 47 63 57 56 68C48 80 43 92 43 105C43 119 53 129 67 129H93C107 129 117 119 117 105C117 92 112 80 104 68C97 57 90 47 82 36C81 34 79 34 78 36Z" fill="#CC6D24" stroke="#171512" stroke-width="6" stroke-linejoin="round"/>
  <path d="M48 73L33 49C32 47 34 44 37 45L66 57" fill="#CC6D24"/>
  <path d="M112 73L127 49C128 47 126 44 123 45L94 57" fill="#CC6D24"/>
  <path d="M48 73L33 49C32 47 34 44 37 45L66 57" stroke="#171512" stroke-width="6" stroke-linejoin="round"/>
  <path d="M112 73L127 49C128 47 126 44 123 45L94 57" stroke="#171512" stroke-width="6" stroke-linejoin="round"/>
  <path d="M67 96C72 103 76 107 80 107C84 107 88 103 93 96" stroke="#171512" stroke-width="6" stroke-linecap="round"/>
  <path d="M72 86H88L80 96L72 86Z" fill="#171512" stroke="#171512" stroke-width="4" stroke-linejoin="round"/>
  <circle cx="64" cy="78" r="4" fill="#171512"/>
  <circle cx="96" cy="78" r="4" fill="#171512"/>
  <path d="M80 35V18" stroke="#171512" stroke-width="6" stroke-linecap="round"/>
  <path d="M63 29C54 20 45 18 36 22C46 38 58 41 76 35" fill="#76945C" stroke="#171512" stroke-width="5" stroke-linejoin="round"/>
  <path d="M97 29C106 20 115 18 124 22C114 38 102 41 84 35" fill="#76945C" stroke="#171512" stroke-width="5" stroke-linejoin="round"/>
</svg>
